{"title":"Transformers 3-Dark of the Moon(2011) SCAMRip Hindi Dubbed-=MTR=","uid":6503970,"size":844946245,"categoryP":"video","categoryS":"movies","magnet":"?xt=urn:btih:1178d94e1b04d7fb7c159735ad27e70fc65da368&amp;dn=Transformers+3-Dark+of+the+Moon%282011%29+SCAMRip+Hindi+Dubbed-%3DMTR%3D&amp;tr=udp%3A%2F%2Ftracker.openbittorrent.com%3A80&amp;tr=udp%3A%2F%2Fopen.demonii.com%3A1337&amp;tr=udp%3A%2F%2Ftracker.coppersurfer.tk%3A6969&amp;tr=udp%3A%2F%2Fexodus.desync.com%3A6969","seeders":1,"leechers":0,"uploader":"HDvideos","files":-1,"time":1309359072,"description":"Transformers 3-Dark of the Moon(2011) SCAMRip Hindi Dubbed-=MTR=-\n\nCheck out MY latest Uploads:\n &lt;a href=&quot;\nhttp://thepiratebay.se/user/HDvideos/0/7&quot; rel=&quot;nofollow&quot; target=&quot;_NEW&quot;&gt;\nhttp://thepiratebay.se/user/HDvideos/0/7&lt;/a&gt;\n\nStay updated with us....\n\nSeed after downloading....\n\nEnjoY with HDvideos..\n\nTorrent From Mastitorrents\n\nTeam Mastitorrents\n\nSay thanks if u like my posts\n\nGive ur valuable feedbacks\n\nQuality Uploads from HDvideos\n\n-=MTR=-\n\nFormat : MPEG-PS\nFile size : 801 MiB\nDuration : 2h 23mn\nOverall bit rate : 780 Kbps\n\nVideo\nID : 224 (0xE0)\nFormat : MPEG Video\nFormat version : Version 2\nFormat settings, BVOP : Yes\nFormat settings, Matrix : Default\nDuration : 2h 23mn\nBit rate mode : Constant\nBit rate : 700 Kbps\nNominal bit rate : 1 150 Kbps\nWidth : 352 pixels\nHeight : 288 pixels\nDisplay aspect ratio : 1.222\nFrame rate : 25.000 fps\nStandard : PAL\nColor space : YUV\nBit depth : 8 bits\nScan type : Progressive\nCompression mode : Lossy\nBits/(Pixel*Frame) : 0.276\nStream size : 719 MiB (90%)\n\nAudio\nID : 192 (0xC0)\nFormat : MPEG Audio\nFormat version : Version 1\nFormat profile : Layer 2\nDuration : 2h 23mn\nBit rate mode : Constant\nBit rate : 64.0 Kbps\nChannel(s) : 2 channels\nSampling rate : 48.0 KHz\nCompression mode : Lossy\nStream size : 65.7 MiB (8%)\n\nMenu\nLanguage : Hindi\n\nDirector:Michael Bay\nWriter:Ehren Kruger\nStars:Shia LaBeouf, Rosie Huntington-Whiteley and Tyrese Gibson \n\nIMDB LINK:http://www.imdb.com/title/tt1399103/\n","torrent":{"xt":"urn:btih:1178d94e1b04d7fb7c159735ad27e70fc65da368","amp;dn":"Transformers+3-Dark+of+the+Moon%282011%29+SCAMRip+Hindi+Dubbed-%3DMTR%3D","amp;tr":["udp%3A%2F%2Ftracker.openbittorrent.com%3A80","udp%3A%2F%2Fopen.demonii.com%3A1337","udp%3A%2F%2Ftracker.coppersurfer.tk%3A6969","udp%3A%2F%2Fexodus.desync.com%3A6969"],"infoHash":"1178d94e1b04d7fb7c159735ad27e70fc65da368","infoHashBuffer":{"type":"Buffer","data":[17,120,217,78,27,4,215,251,124,21,151,53,173,39,231,15,198,93,163,104]},"announce":[],"urlList":[]}}